<svg preserveAspectRatio="none" width="100%" height="100%" overflow="visible" style="display: block;" viewBox="0 0 24 24" fill="none" xmlns="http://www.w3.org/2000/svg">
<g id="jam:home-f">
<path id="Vector" d="M14.7 21V16.424C14.7 15.6959 14.4155 14.9975 13.9092 14.4826C13.4028 13.9677 12.7161 13.6785 12 13.6785C11.2839 13.6785 10.5972 13.9677 10.0908 14.4826C9.58446 14.9975 9.3 15.6959 9.3 16.424V21H4.8C4.32261 21 3.86477 20.8072 3.52721 20.4639C3.18964 20.1206 3 19.6551 3 19.1696V9.22332C3 8.90724 3.08049 8.59654 3.23363 8.32148C3.38678 8.04643 3.60736 7.81639 3.8739 7.65376L11.0739 3.26085C11.3536 3.09016 11.6738 3 12 3C12.3262 3 12.6464 3.09016 12.9261 3.26085L20.1261 7.65376C20.3926 7.81639 20.6132 8.04643 20.7664 8.32148C20.9195 8.59654 21 8.90724 21 9.22332V19.1696C21 19.6551 20.8104 20.1206 20.4728 20.4639C20.1352 20.8072 19.6774 21 19.2 21H14.7V21Z" fill="var(--fill-0, #BB6BD9)"/>
</g>
</svg>
